<svg fill="#0084FF" xmlns="http://www.w3.org/2000/svg"  viewBox="0 0 24 24" width="24px" height="24px"><path d="M 12.345703 2 C 8.3108594 1.9234375 4.3139062 4.2215625 2.6601562 8.5703125 C 4.5301563 7.2603125 6.3203906 6.9692969 7.6503906 7.0292969 C 10.630391 7.1392969 13.230391 8.959375 14.400391 10.609375 C 14.730391 11.129375 14.920625 11.869687 14.640625 12.679688 C 14.450625 13.269687 14.200625 13.349687 14.140625 13.429688 C 14.090625 13.499688 13.770078 13.839688 14.330078 14.179688 C 14.880078 14.529687 15.479453 14.869453 16.689453 14.939453 C 17.899453 14.999453 19.350781 15.070234 20.800781 13.740234 C 22.280781 12.390234 22.080625 9.9904688 21.640625 8.7304688 C 21.190625 7.4704688 19.300312 3.1796875 14.070312 2.1796875 C 13.499063 2.0709375 12.922109 2.0109375 12.345703 2 z M 7.5800781 9.0292969 C 5.5500781 8.9592969 3.6897656 9.9096094 2.0097656 11.849609 C 1.9397656 15.639609 4.2092187 19.089766 7.1992188 20.759766 C 7.7592187 21.069766 8.5201562 21.389141 9.4101562 21.619141 C 7.9901563 20.439141 7.3901563 19.149609 7.1601562 18.099609 C 6.5101562 15.149609 8.2305469 12.245625 10.060547 10.515625 C 10.220547 10.305625 10.440625 10.079688 10.640625 9.9296875 C 9.780625 9.4396875 8.7300781 9.0692969 7.5800781 9.0292969 z M 9.9296875 13.830078 C 9.2396875 14.980078 8.819375 16.340156 9.109375 17.660156 C 9.499375 19.430156 11.169453 20.860547 13.939453 21.810547 C 16.009453 21.430547 18.210625 20.319219 20.140625 17.949219 C 20.350625 17.649219 20.499063 17.390156 20.289062 17.160156 C 20.079062 16.930156 20.019922 16.950391 18.919922 17.400391 C 17.819922 17.850391 15.759141 17.910234 14.369141 17.490234 C 13.019141 17.090234 11.059688 16.410078 9.9296875 13.830078 z"/></svg>
