<svg fill="#F57C00" xmlns="http://www.w3.org/2000/svg"  viewBox="0 0 24 24" width="24px" height="24px"><path d="M 8.53125 2 L 7.0371094 3.7929688 C 5.5868316 3.6455695 4.1387767 4.2910008 3.3046875 5.5429688 L 3 6 L 4.0585938 7.3671875 L 3.2402344 8.3496094 A 1.0003909 1.0003909 0 0 0 3.2285156 8.3632812 L 2.9160156 8.7382812 L 3.0175781 9.1835938 A 1.0003909 1.0003909 0 0 0 3.0195312 9.1992188 L 3.0253906 9.2207031 A 1.0003909 1.0003909 0 0 0 3.0273438 9.2285156 L 4.7753906 16.976562 C 4.9140251 17.669168 5.118682 18.208227 5.4453125 18.634766 C 5.771943 19.061304 6.1488059 19.300876 6.4804688 19.521484 L 10.890625 22.462891 L 10.890625 22.460938 C 11.560431 22.908807 12.439641 22.909333 13.109375 22.462891 L 17.519531 19.521484 C 17.850586 19.300948 18.230288 19.061199 18.556641 18.634766 C 18.882993 18.208332 19.085975 17.669168 19.224609 16.976562 L 20.953125 9.3144531 A 1.0001 1.0001 0 0 0 20.957031 9.3007812 A 1.0001 1.0001 0 0 0 21.001953 9.1054688 L 21.083984 8.7382812 L 20.865234 8.4765625 A 1.0001 1.0001 0 0 0 20.662109 8.2324219 A 1.0001 1.0001 0 0 0 20.65625 8.2265625 L 19.941406 7.3671875 L 21 6 L 20.695312 5.5429688 C 19.861223 4.2910008 18.413168 3.6455695 16.962891 3.7929688 L 15.46875 2 L 8.53125 2 z M 12 4.8671875 C 12.281436 4.8671875 12.562871 4.9769336 12.783203 5.1972656 L 13.076172 5.4902344 L 13.357422 5.4902344 C 13.906718 5.7573427 14.527756 5.8540447 15.09375 5.5703125 L 15.255859 5.4902344 L 15.773438 5.4902344 L 18.738281 9.0488281 L 16.337891 12.419922 A 1.0001 1.0001 0 0 0 16.259766 13.447266 L 16.550781 14.03125 C 16.75946 14.450764 16.656482 14.946506 16.296875 15.246094 L 15.984375 15.507812 C 15.657656 15.577455 15.328154 15.615028 15.003906 15.585938 C 14.546906 15.541937 14.108516 15.400641 13.728516 15.181641 C 13.538516 15.073641 13.357172 14.947828 13.201172 14.798828 C 13.12621 14.738694 13.057105 14.657628 13 14.59375 L 13 14 A 1.0001 1.0001 0 0 0 12.939453 13.648438 L 14.447266 12.894531 C 14.786266 12.724531 15 12.379 15 12 L 14 10 L 17 9 L 16 8 L 14 8 C 13.661 8.17 13 9.621 13 10 L 14 12 L 12.023438 12.988281 A 1.0001 1.0001 0 0 0 11.984375 12.986328 A 1.0001 1.0001 0 0 0 11.974609 12.986328 L 10 12 L 11 10 C 11 9.621 10.339 8.17 10 8 L 8 8 L 7 9 L 10 10 L 9 12 C 9 12.379 9.2137344 12.724531 9.5527344 12.894531 L 11.060547 13.648438 A 1.0001 1.0001 0 0 0 11 14 L 11 14.59375 C 10.944038 14.656278 10.875563 14.736176 10.802734 14.794922 C 10.646734 14.944922 10.465391 15.068734 10.275391 15.177734 C 9.8943906 15.397734 9.458 15.540938 9 15.585938 C 8.7450351 15.608812 8.4852656 15.594672 8.2265625 15.556641 L 7.8554688 15.246094 C 7.495862 14.946506 7.3928838 14.450764 7.6015625 14.03125 L 7.8945312 13.447266 A 1.0001 1.0001 0 0 0 7.8007812 12.400391 L 5.2753906 9.0332031 L 8.2929688 5.4101562 L 9.03125 5.6972656 C 9.7675305 5.9825992 10.608493 5.8055693 11.167969 5.2460938 L 11.216797 5.1972656 C 11.437129 4.9769336 11.718564 4.8671875 12 4.8671875 z M 12 16.279297 C 12.315658 16.490945 12.662133 16.678836 13.001953 16.800781 C 13.361761 16.936684 13.734048 17.023409 14.109375 17.070312 L 12.076172 18.763672 L 10.027344 17.054688 C 10.358839 17.003629 10.687438 16.919405 11.005859 16.798828 C 11.342256 16.677575 11.686752 16.489059 12 16.279297 z"/></svg>
